<svg width="34" height="34" viewBox="0 0 34 34" fill="none" xmlns="http://www.w3.org/2000/svg">
<path fill-rule="evenodd" clip-rule="evenodd" d="M15.7289 8.94732C16.1431 8.88246 16.5676 8.84879 17 8.84879C21.5018 8.84879 25.1512 12.4982 25.1512 17C25.1512 21.5018 21.5018 25.1512 17 25.1512C16.5676 25.1512 16.1431 25.1175 15.7289 25.0527C14.324 27.2562 12.3596 29.0683 10.0357 30.2887C12.1168 31.3816 14.4862 32 17 32C25.2843 32 32 25.2843 32 17C32 8.71573 25.2843 2 17 2C14.4862 2 12.1168 2.61836 10.0357 3.71128C12.3596 4.93166 14.324 6.74375 15.7289 8.94732ZM5.2771 26.359C3.22623 23.7934 2 20.5399 2 17C2 13.4601 3.22623 10.2066 5.2771 7.64103C7.6214 8.1914 9.63505 9.59983 10.9686 11.5168C9.65158 12.9647 8.84879 14.8886 8.84879 17C8.84879 19.1114 9.65158 21.0353 10.9686 22.4832C9.63505 24.4002 7.6214 25.8086 5.2771 26.359Z" fill="#6E0AB8"/>
<path fill-rule="evenodd" clip-rule="evenodd" d="M5.2771 26.3589C3.22623 23.7934 2 20.5398 2 16.9999C2 13.46 3.22624 10.2065 5.2771 7.64095C7.6214 8.19132 9.63505 9.59975 10.9686 11.5168C9.65158 12.9646 8.84879 14.8885 8.84879 16.9999C8.84879 19.1113 9.65158 21.0352 10.9686 22.4831C9.63505 24.4001 7.6214 25.8085 5.2771 26.3589Z" fill="#D2B3E9"/>
</svg>
